<svg xmlns="http://www.w3.org/2000/svg" version="1.1" width="755" height="977" viewBox="-17 -12.5 125.81 162.75" font-family="'Segoe UI', Helvetica, Arial, sans-serif" data-siteplan="1.0.0">
<title>SF 1258 F (baseline, as drawn) — Site plan</title>
<rect x="-17" y="-12.5" width="125.81" height="162.75" fill="#fff"/>
<g id="sp-lot"><path d="M0 0L73.31 0L58.09 112.75L56.458 112.533L54.825 112.326L53.19 112.127L51.555 111.937L49.918 111.756L48.281 111.585L46.642 111.422L45.003 111.268L43.363 111.123L41.722 110.987L40.081 110.86L38.438 110.742L36.795 110.633L35.152 110.533L33.508 110.442L31.864 110.361L30.219 110.288L28.574 110.224L26.928 110.169L25.282 110.123L23.636 110.086L21.99 110.058L20.344 110.04L18.697 110.03L0 109.97Z" fill="#ffffff"/><path d="M-16 113.919L0 113.97L18.697 114.03L20.344 114.04L21.99 114.058L23.636 114.086L25.282 114.123L26.928 114.169L28.574 114.224L30.219 114.288L31.864 114.361L33.508 114.442L35.152 114.533L36.795 114.633L38.438 114.742L40.081 114.86L41.722 114.987L43.363 115.123L45.003 115.268L46.642 115.422L48.281 115.585L49.918 115.756L51.555 115.937L53.19 116.127L54.825 116.326L56.458 116.533L58.09 116.75L87.829 120.697" stroke="#8c8c8c" stroke-width="0.09" fill="none"/><path d="M-16 117.919L0 117.97L18.697 118.03L20.344 118.04L21.99 118.058L23.636 118.086L25.282 118.123L26.928 118.169L28.574 118.224L30.219 118.288L31.864 118.361L33.508 118.442L35.152 118.533L36.795 118.633L38.438 118.742L40.081 118.86L41.722 118.987L43.363 119.123L45.003 119.268L46.642 119.422L48.281 119.585L49.918 119.756L51.555 119.937L53.19 120.127L54.825 120.326L56.458 120.533L58.09 120.75L87.829 124.697" stroke="#8c8c8c" stroke-width="0.09" fill="none"/><path d="M-16 121.919L0 121.97L18.697 122.03L20.344 122.04L21.99 122.058L23.636 122.086L25.282 122.123L26.928 122.169L28.574 122.224L30.219 122.288L31.864 122.361L33.508 122.442L35.152 122.533L36.795 122.633L38.438 122.742L40.081 122.86L41.722 122.987L43.363 123.123L45.003 123.268L46.642 123.422L48.281 123.585L49.918 123.756L51.555 123.937L53.19 124.127L54.825 124.326L56.458 124.533L58.09 124.75L87.829 128.697" stroke="#4a4a4a" stroke-width="0.13" fill="none"/><path d="M-16 122.519L0 122.57L18.697 122.63L20.344 122.64L21.99 122.658L23.636 122.686L25.282 122.723L26.928 122.769L28.574 122.824L30.219 122.888L31.864 122.961L33.508 123.042L35.152 123.133L36.795 123.233L38.438 123.342L40.081 123.46L41.722 123.587L43.363 123.723L45.003 123.868L46.642 124.022L48.281 124.185L49.918 124.356L51.555 124.537L53.19 124.727L54.825 124.926L56.458 125.133L58.09 125.35L87.829 129.297" stroke="#8c8c8c" stroke-width="0.09" fill="none"/></g>
<g id="sp-flat"><path d="M9.583 110.001L31.583 110.348L31.583 122.348L9.583 122.001Z" fill="#f3f3f3" stroke="#8c8c8c" stroke-width="0.09"/><path d="M12.583 88.457L28.583 88.457L28.583 105.224L31.583 110.348L9.583 110.001L12.583 105.01Z" fill="#f3f3f3" stroke="#4a4a4a" stroke-width="0.12"/><path d="M33.166 72.123L36.666 72.123L36.666 91.957L28.583 91.957L28.583 88.457L33.166 88.457Z" fill="#f3f3f3" stroke="#4a4a4a" stroke-width="0.12"/><path d="M35.583 33.79L41.583 33.79L41.583 39.79L35.583 39.79Z" fill="#f3f3f3" stroke="#4a4a4a" stroke-width="0.12"/></g>
<g id="sp-roof"><line x1="9.083" y1="38.29" x2="56.916" y2="38.29" stroke="#a3a3a3" stroke-width="0.09"/><line x1="40.416" y1="67.623" x2="41.916" y2="67.623" stroke="#a3a3a3" stroke-width="0.09"/><line x1="41.916" y1="72.957" x2="56.916" y2="72.957" stroke="#a3a3a3" stroke-width="0.09"/><line x1="32.083" y1="73.623" x2="40.416" y2="73.623" stroke="#a3a3a3" stroke-width="0.09"/><line x1="9.083" y1="89.957" x2="32.083" y2="89.957" stroke="#a3a3a3" stroke-width="0.09"/><line x1="9.083" y1="38.29" x2="9.083" y2="89.957" stroke="#a3a3a3" stroke-width="0.09"/><line x1="32.083" y1="73.623" x2="32.083" y2="89.957" stroke="#a3a3a3" stroke-width="0.09"/><line x1="40.416" y1="67.623" x2="40.416" y2="73.623" stroke="#a3a3a3" stroke-width="0.09"/><line x1="41.916" y1="67.623" x2="41.916" y2="72.957" stroke="#a3a3a3" stroke-width="0.09"/><line x1="56.916" y1="38.29" x2="56.916" y2="72.957" stroke="#a3a3a3" stroke-width="0.09"/></g>
<g id="sp-house"><path d="M30.583 66.123L38.916 66.123L38.916 72.123L30.583 72.123Z" fill="#ededed" stroke="#111111" stroke-width="0.14"/><path d="M10.583 66.123L30.583 66.123L30.583 88.457L10.583 88.457Z" fill="#ffffff" stroke="#111111" stroke-width="0.26" stroke-linejoin="miter"/><path d="M10.583 39.79L55.416 39.79L55.416 71.457L43.416 71.457L43.416 66.123L10.583 66.123Z" fill="#ffffff" stroke="#111111" stroke-width="0.26" stroke-linejoin="miter"/><rect x="30.583" y="70.123" width="2" height="2" fill="#111111"/><rect x="36.916" y="70.123" width="2" height="2" fill="#111111"/><line x1="12.583" y1="88.457" x2="28.583" y2="88.457" stroke="#111111" stroke-width="0.5"/></g>
<g id="sp-lines"><line x1="0" y1="0" x2="73.31" y2="0" stroke="#111111" stroke-width="0.36" stroke-dasharray="4.5 1.3 0.6 1.3" stroke-linecap="butt" fill="none"/><line x1="73.31" y1="0" x2="58.09" y2="112.75" stroke="#111111" stroke-width="0.36" stroke-dasharray="4.5 1.3 0.6 1.3" stroke-linecap="butt" fill="none"/><line x1="0" y1="109.97" x2="0" y2="0" stroke="#111111" stroke-width="0.36" stroke-dasharray="4.5 1.3 0.6 1.3" stroke-linecap="butt" fill="none"/><path d="M0 109.97L18.697 110.03L20.344 110.04L21.99 110.058L23.636 110.086L25.282 110.123L26.928 110.169L28.574 110.224L30.219 110.288L31.864 110.361L33.508 110.442L35.152 110.533L36.795 110.633L38.438 110.742L40.081 110.86L41.722 110.987L43.363 111.123L45.003 111.268L46.642 111.422L48.281 111.585L49.918 111.756L51.555 111.937L53.19 112.127L54.825 112.326L56.458 112.533L58.09 112.75" stroke="#111111" stroke-width="0.36" stroke-dasharray="4.5 1.3 0.6 1.3" stroke-linecap="butt" fill="none"/><circle cx="0" cy="0" r="0.9" fill="#ffffff" stroke="#111111" stroke-width="0.12"/><circle cx="73.31" cy="0" r="0.9" fill="#ffffff" stroke="#111111" stroke-width="0.12"/><circle cx="58.09" cy="112.75" r="0.9" fill="#ffffff" stroke="#111111" stroke-width="0.12"/><circle cx="0" cy="109.97" r="0.9" fill="#ffffff" stroke="#111111" stroke-width="0.12"/><circle cx="18.697" cy="110.03" r="0.9" fill="#ffffff" stroke="#111111" stroke-width="0.12"/><path d="M5 5L67.59 5L55.805 92.298L55.55 92.267L53.805 92.064L52.06 91.871L50.313 91.688L48.566 91.514L46.818 91.35L45.068 91.196L43.318 91.051L41.568 90.916L39.816 90.79L38.064 90.674L36.311 90.567L34.558 90.47L32.804 90.383L31.05 90.305L29.295 90.237L27.54 90.178L25.784 90.129L24.029 90.09L22.273 90.06L20.517 90.04L18.788 90.03L5 89.986Z" stroke="#3c3c3c" stroke-width="0.12" stroke-dasharray="2.6 1.4" fill="none"/></g>
<g id="sp-text"><text x="33" y="55.148" font-size="2.5" text-anchor="middle" fill="#111111" font-weight="600" letter-spacing="0.45">HOUSE</text><text x="20.583" y="81.31" font-size="2.5" text-anchor="middle" fill="#111111" font-weight="600" letter-spacing="0.45">GARAGE</text><text x="20.583" y="102.25" font-size="1.55" text-anchor="middle" fill="#111111" letter-spacing="0.25">CONC. DRIVEWAY</text><text x="39.266" y="79.223" font-size="1.55" text-anchor="start" fill="#111111">42&quot; CONC.</text><text x="39.266" y="81.123" font-size="1.55" text-anchor="start" fill="#111111">WALKWAY</text><text x="38.583" y="32.89" font-size="1.35" text-anchor="middle" fill="#4a4a4a">STOOP</text><text x="36.655" y="-6.6" font-size="3.3" text-anchor="middle" fill="#111111" font-weight="700" letter-spacing="0.7" font-family="Georgia, 'Times New Roman', Times, serif">HUNT LANE</text><text x="36.655" y="-1.1" font-size="1.85" text-anchor="middle" fill="#111111" letter-spacing="0.2">73.31' P.L.</text><text x="36.655" y="7.15" font-size="1.65" text-anchor="middle" fill="#111111" letter-spacing="0.2">5' B.S.L.</text><text x="-0.8" y="60.484" font-size="1.85" text-anchor="middle" fill="#111111" letter-spacing="0.2" transform="rotate(-90 -0.8 60.484)">109.97' P.L.</text><text x="7.25" y="60.484" font-size="1.65" text-anchor="middle" fill="#111111" letter-spacing="0.2" transform="rotate(-90 7.25 60.484)">5' B.S.L.</text><text x="68.783" y="53.347" font-size="1.85" text-anchor="middle" fill="#111111" letter-spacing="0.2" transform="rotate(-82.312 68.783 53.347)">113.77' P.L.</text><text x="60.607" y="52.243" font-size="1.65" text-anchor="middle" fill="#111111" letter-spacing="0.2" transform="rotate(-82.312 60.607 52.243)">5' B.S.L.</text><text x="4.383" y="112.3" font-size="1.5" text-anchor="middle" fill="#111111" letter-spacing="0.15">18.69' P.L.</text><text x="45.583" y="113.622" font-size="1.5" text-anchor="middle" fill="#111111" letter-spacing="0.15">R=300.41'   L=39.50'</text><text x="45.583" y="117.872" font-size="1.35" text-anchor="middle" fill="#4a4a4a" letter-spacing="0.3">EXISTING SIDEWALK</text><text x="45.583" y="125.522" font-size="1.35" text-anchor="middle" fill="#4a4a4a" letter-spacing="0.3">STREET EDGE</text><text x="20.583" y="129.642" font-size="3.3" text-anchor="middle" fill="#111111" font-weight="700" letter-spacing="0.7" font-family="Georgia, 'Times New Roman', Times, serif">SAWTOOTH DR.</text><text x="45.166" y="93.554" font-size="1.65" text-anchor="middle" fill="#111111" letter-spacing="0.2">20' B.S.L.</text></g>
<g id="sp-dims"><line x1="0" y1="32.29" x2="10.583" y2="32.29" stroke="#1a1a1a" stroke-width="0.09"/><line x1="-0.5" y1="32.79" x2="0.5" y2="31.79" stroke="#1a1a1a" stroke-width="0.16"/><line x1="10.083" y1="32.79" x2="11.083" y2="31.79" stroke="#1a1a1a" stroke-width="0.16"/><line x1="0" y1="4.6" x2="0" y2="33.29" stroke="#555555" stroke-width="0.065"/><line x1="10.583" y1="39.19" x2="10.583" y2="31.29" stroke="#555555" stroke-width="0.065"/><text x="5.292" y="31.74" font-size="1.75" text-anchor="middle" fill="#1a1a1a">10'-7&quot;</text><line x1="10.583" y1="32.29" x2="55.416" y2="32.29" stroke="#1a1a1a" stroke-width="0.09"/><line x1="10.083" y1="32.79" x2="11.083" y2="31.79" stroke="#1a1a1a" stroke-width="0.16"/><line x1="54.916" y1="32.79" x2="55.916" y2="31.79" stroke="#1a1a1a" stroke-width="0.16"/><line x1="55.416" y1="39.19" x2="55.416" y2="31.29" stroke="#555555" stroke-width="0.065"/><text x="33" y="31.74" font-size="1.75" text-anchor="middle" fill="#1a1a1a">44'-10&quot;</text><line x1="55.497" y1="39.195" x2="56.553" y2="31.366" stroke="#555555" stroke-width="0.065"/><line x1="56.42" y1="32.357" x2="68.718" y2="34.018" stroke="#1a1a1a" stroke-width="0.09"/><line x1="55.92" y1="32.857" x2="56.92" y2="31.857" stroke="#1a1a1a" stroke-width="0.16"/><line x1="68.218" y1="34.518" x2="69.218" y2="33.518" stroke="#1a1a1a" stroke-width="0.16"/><text x="62.642" y="32.642" font-size="1.75" text-anchor="middle" fill="#1a1a1a" transform="rotate(7.688 62.642 32.642)">12'-5&quot;</text><line x1="55.336" y1="72.051" x2="54.547" y2="77.898" stroke="#555555" stroke-width="0.065"/><line x1="54.681" y1="76.907" x2="62.781" y2="78.001" stroke="#1a1a1a" stroke-width="0.09"/><line x1="54.181" y1="77.407" x2="55.181" y2="76.407" stroke="#1a1a1a" stroke-width="0.16"/><line x1="62.281" y1="78.501" x2="63.281" y2="77.501" stroke="#1a1a1a" stroke-width="0.16"/><text x="58.804" y="76.909" font-size="1.75" text-anchor="middle" fill="#1a1a1a" transform="rotate(7.688 58.804 76.909)">8'-2&quot;</text><line x1="-5.2" y1="0" x2="-5.2" y2="39.79" stroke="#1a1a1a" stroke-width="0.09"/><line x1="-5.7" y1="0.5" x2="-4.7" y2="-0.5" stroke="#1a1a1a" stroke-width="0.16"/><line x1="-5.7" y1="40.29" x2="-4.7" y2="39.29" stroke="#1a1a1a" stroke-width="0.16"/><line x1="-3.1" y1="0" x2="-6.2" y2="0" stroke="#555555" stroke-width="0.065"/><line x1="9.983" y1="39.79" x2="-6.2" y2="39.79" stroke="#555555" stroke-width="0.065"/><text x="-4.65" y="19.895" font-size="1.75" text-anchor="middle" fill="#1a1a1a" transform="rotate(90 -4.65 19.895)">39'-9½&quot;</text><line x1="-5.2" y1="39.79" x2="-5.2" y2="88.457" stroke="#1a1a1a" stroke-width="0.09"/><line x1="-5.7" y1="40.29" x2="-4.7" y2="39.29" stroke="#1a1a1a" stroke-width="0.16"/><line x1="-5.7" y1="88.957" x2="-4.7" y2="87.957" stroke="#1a1a1a" stroke-width="0.16"/><line x1="9.983" y1="88.457" x2="-6.2" y2="88.457" stroke="#555555" stroke-width="0.065"/><text x="-4.65" y="64.123" font-size="1.75" text-anchor="middle" fill="#1a1a1a" transform="rotate(90 -4.65 64.123)">48'-8&quot;</text><line x1="-5.2" y1="88.457" x2="-5.2" y2="109.97" stroke="#1a1a1a" stroke-width="0.09"/><line x1="-5.7" y1="88.957" x2="-4.7" y2="87.957" stroke="#1a1a1a" stroke-width="0.16"/><line x1="-5.7" y1="110.47" x2="-4.7" y2="109.47" stroke="#1a1a1a" stroke-width="0.16"/><line x1="-3.1" y1="109.97" x2="-6.2" y2="109.97" stroke="#555555" stroke-width="0.065"/><text x="-4.65" y="99.213" font-size="1.75" text-anchor="middle" fill="#1a1a1a" transform="rotate(90 -4.65 99.213)">21'-6&quot;</text></g>
<g id="sp-annot"><line x1="36.366" y1="79.523" x2="38.466" y2="79.523" stroke="#111111" stroke-width="0.065"/><circle cx="36.366" cy="79.523" r="0.28" fill="#111111"/><text x="13.5" y="10.4" font-size="2.3" text-anchor="start" fill="#111111" font-weight="700" font-family="Georgia, 'Times New Roman', Times, serif">LOT 7,286 S.F.</text><line x1="12.5" y1="11.1" x2="52.074" y2="11.1" stroke="#111111" stroke-width="0.1"/><text x="13.5" y="13.35" font-size="2.3" text-anchor="start" fill="#111111" font-weight="700" font-family="Georgia, 'Times New Roman', Times, serif">FLATWRK 484 S.F.</text><text x="30.409" y="16.645" font-size="2.3" text-anchor="middle" fill="#111111" font-weight="700" font-family="Georgia, 'Times New Roman', Times, serif">+</text><text x="13.5" y="18.513" font-size="2.3" text-anchor="start" fill="#111111" font-weight="700" font-family="Georgia, 'Times New Roman', Times, serif">HOUSE 1,741 S.F.</text><line x1="12.5" y1="19.213" x2="52.074" y2="19.213" stroke="#111111" stroke-width="0.1"/><text x="13.5" y="21.463" font-size="2.3" text-anchor="start" fill="#111111" font-weight="700" font-family="Georgia, 'Times New Roman', Times, serif">2,225 S.F. = IMPERVIOUS AREA</text><text x="13.5" y="24.413" font-size="2.3" text-anchor="start" fill="#111111" font-weight="700" font-family="Georgia, 'Times New Roman', Times, serif">EQ = 31% IMPERVIOUS AREA</text><text x="13.5" y="26.413" font-size="1.275" text-anchor="start" fill="#4a4a4a" letter-spacing="0.1">(LOT AREA FROM THE PLOTTED BOUNDARY; PLAT CALLS 7,282 S.F.)</text><text x="13.5" y="29.563" font-size="1.38" text-anchor="start" fill="#111111" letter-spacing="0.1">CLEARANCES TO P.L.:  LEFT 10'-7&quot;   RIGHT 8'-2&quot;   REAR 39'-9½&quot;   FRONT 21'-6½&quot;   (REQ'D 5' / 5' / 5' / 20')</text><rect x="79.81" y="86.75" width="26.5" height="8.68" fill="#ffffff" stroke="#111111" stroke-width="0.1"/><text x="81.11" y="89.45" font-size="1.6" text-anchor="start" fill="#111111" letter-spacing="0.15">MAKE SURE ALL DRAINAGE</text><text x="81.11" y="91.61" font-size="1.6" text-anchor="start" fill="#111111" letter-spacing="0.15">RUN-OFF FLOWS AWAY FROM</text><text x="81.11" y="93.77" font-size="1.6" text-anchor="start" fill="#111111" letter-spacing="0.15">HOUSE FOUNDATION.</text><rect x="79.81" y="97.83" width="26.5" height="8.68" fill="#ffffff" stroke="#111111" stroke-width="0.1"/><text x="81.11" y="100.53" font-size="1.6" text-anchor="start" fill="#111111" letter-spacing="0.15">PROVIDE PVC CONDUITS BELOW</text><text x="81.11" y="102.69" font-size="1.6" text-anchor="start" fill="#111111" letter-spacing="0.15">DRIVEWAYS FOR FUTURE</text><text x="81.11" y="104.85" font-size="1.6" text-anchor="start" fill="#111111" letter-spacing="0.15">LANDSCAPE WIRING</text><circle cx="87.31" cy="11" r="3.4" fill="none" stroke="#111111" stroke-width="0.1"/><line x1="87.31" y1="13.55" x2="87.31" y2="9.81" stroke="#111111" stroke-width="0.16"/><polygon points="87.31,8.11 86.46,10.32 88.16,10.32" fill="#111111"/><text x="87.31" y="6.6" font-size="2.4" text-anchor="middle" fill="#111111" font-weight="700">N</text><text x="-14" y="141.25" font-size="4.2" text-anchor="start" fill="#111111" font-weight="700" letter-spacing="0.9">SITE PLAN</text><line x1="-14" y1="142.45" x2="16.813" y2="142.45" stroke="#111111" stroke-width="0.22"/><text x="-14" y="145.65" font-size="1.9" text-anchor="start" fill="#111111" letter-spacing="0.3">SCALE: 1/8&quot; = 1'-0&quot;</text><text x="105.81" y="141.05" font-size="1.7" text-anchor="end" fill="#111111" font-weight="600" letter-spacing="0.25">738 SAWTOOTH DR. · LOT 48 · BLOCK 23 · N.C.B. 15850</text><text x="105.81" y="144.45" font-size="1.7" text-anchor="end" fill="#111111" letter-spacing="0.25">LACKLAND CITY SUBDIVISION · SAN ANTONIO, TX. · BEXAR COUNTY</text><text x="105.81" y="147.65" font-size="1.275" text-anchor="end" fill="#4a4a4a" letter-spacing="0.2">SF 1258 F (BASELINE, AS DRAWN) — CONCEPT STUDY, NOT FOR CONSTRUCTION</text></g>
</svg>