<svg xmlns="http://www.w3.org/2000/svg" viewBox="-58 -58 724 826" width="1448" height="1652" font-family="Helvetica, Arial, sans-serif"><rect x="-58" y="-58" width="724" height="826" fill="#fff"/><polygon points="252,360 364,360 364,440 252,440" fill="#ececec" stroke="#9a9a9a" stroke-width="0.6" stroke-dasharray="4 3"/><polygon points="362,-72 446,-72 446,0 362,0" fill="#ececec" stroke="#9a9a9a" stroke-width="0.6" stroke-dasharray="4 3"/><polygon points="0,0 608,0 608,432 444,432 444,360 0,360" fill="none" stroke="#9a9a9a" stroke-width="0.8" stroke-dasharray="6 3"/><polygon points="0,360 252,360 252,628 0,628" fill="none" stroke="#9a9a9a" stroke-width="0.8" stroke-dasharray="6 3"/><polygon points="382,378 426.1,378 526,278.1 526,278 428,180 382,180" fill="#f7f7f7" stroke="none"/><polygon points="308,232.1 382,306.1 382,180 308,180" fill="#f7f7f7" stroke="none"/><polygon points="270,270.1 308,232.1 308,180 270,180" fill="#f7f7f7" stroke="none"/><polygon points="270,234 270,180 180,180 126,234 126,234" fill="#f7f7f7" stroke="none"/><polygon points="234,234 126,234 126,234.1 234,342.1" fill="#f7f7f7" stroke="none"/><polygon points="270,270.1 270,234 234,234 234,306.1" fill="#f7f7f7" stroke="none"/><polygon points="-18,378 -17.9,378 126,234.1 126,234 126,234" fill="#f7f7f7" stroke="none"/><polygon points="526,278.1 625.9,378 626,378 526,278" fill="#f7f7f7" stroke="none"/><polygon points="626,-18 -18,-18 180,180 428,180" fill="#f7f7f7" stroke="none"/><polygon points="-18,-18 -18,378 180,180" fill="#f7f7f7" stroke="none"/><polygon points="626,378 626,-18 428,180" fill="#f7f7f7" stroke="none"/><polygon points="426,378 426,450 498,378" fill="#f7f7f7" stroke="none"/><polygon points="426.1,378 498,378 526,350 526,278.1" fill="#f7f7f7" stroke="none"/><polygon points="626,450 626,378 554,378" fill="#f7f7f7" stroke="none"/><polygon points="526,278.1 526,350 554,378 625.9,378" fill="#f7f7f7" stroke="none"/><polygon points="426,450 626,450 526,350" fill="#f7f7f7" stroke="none"/><polygon points="-18,378 -18,646 126,646 126,378" fill="#f7f7f7" stroke="none"/><polygon points="-17.9,378 126,378 126,234.1" fill="#f7f7f7" stroke="none"/><polygon points="126,646 234,646 234,342.1 126,234.1" fill="#f7f7f7" stroke="none"/><polygon points="270,646 270,458 234,458 234,646" fill="#f7f7f7" stroke="none"/><polygon points="234,458 308,458 308,232.1 234,306.1" fill="#f7f7f7" stroke="none"/><polygon points="308,458 382,458 382,306.1 308,232.1" fill="#f7f7f7" stroke="none"/><line x1="382" y1="378" x2="426.1" y2="378" stroke="#2b2b2b" stroke-width="1.6" stroke-linecap="round"/><line x1="426.1" y1="378" x2="526" y2="278.1" stroke="#2b2b2b" stroke-width="1.1" stroke-linecap="round"/><line x1="526" y1="278.1" x2="526" y2="278" stroke="#2b2b2b" stroke-width="1.1" stroke-linecap="round"/><line x1="526" y1="278" x2="428" y2="180" stroke="#2b2b2b" stroke-width="1.1" stroke-linecap="round"/><line x1="428" y1="180" x2="382" y2="180" stroke="#111111" stroke-width="2.2" stroke-linecap="round"/><line x1="308" y1="232.1" x2="382" y2="306.1" stroke="#2b2b2b" stroke-width="1.1" stroke-linecap="round"/><line x1="382" y1="180" x2="308" y2="180" stroke="#111111" stroke-width="2.2" stroke-linecap="round"/><line x1="270" y1="270.1" x2="308" y2="232.1" stroke="#2b2b2b" stroke-width="1.1" stroke-linecap="round"/><line x1="308" y1="180" x2="270" y2="180" stroke="#111111" stroke-width="2.2" stroke-linecap="round"/><line x1="270" y1="180" x2="180" y2="180" stroke="#111111" stroke-width="2.2" stroke-linecap="round"/><line x1="180" y1="180" x2="126" y2="234" stroke="#2b2b2b" stroke-width="1.1" stroke-linecap="round"/><line x1="126" y1="234" x2="126" y2="234" stroke="#2b2b2b" stroke-width="1.1" stroke-linecap="round"/><line x1="126" y1="234" x2="126" y2="234.1" stroke="#2b2b2b" stroke-width="1.1" stroke-linecap="round"/><line x1="126" y1="234.1" x2="234" y2="342.1" stroke="#2b2b2b" stroke-width="1.1" stroke-linecap="round"/><line x1="234" y1="306.1" x2="270" y2="270.1" stroke="#2b2b2b" stroke-width="1.1" stroke-linecap="round"/><line x1="-18" y1="378" x2="-17.9" y2="378" stroke="#2b2b2b" stroke-width="1.6" stroke-linecap="round"/><line x1="-17.9" y1="378" x2="126" y2="234.1" stroke="#2b2b2b" stroke-width="1.1" stroke-linecap="round"/><line x1="126" y1="234" x2="126" y2="234" stroke="#2b2b2b" stroke-width="1.1" stroke-linecap="round"/><line x1="126" y1="234" x2="-18" y2="378" stroke="#2b2b2b" stroke-width="1.1" stroke-linecap="round"/><line x1="526" y1="278.1" x2="625.9" y2="378" stroke="#2b2b2b" stroke-width="1.1" stroke-linecap="round"/><line x1="625.9" y1="378" x2="626" y2="378" stroke="#2b2b2b" stroke-width="1.6" stroke-linecap="round"/><line x1="626" y1="378" x2="526" y2="278" stroke="#2b2b2b" stroke-width="1.1" stroke-linecap="round"/><line x1="626" y1="-18" x2="-18" y2="-18" stroke="#2b2b2b" stroke-width="1.6" stroke-linecap="round"/><line x1="-18" y1="-18" x2="180" y2="180" stroke="#2b2b2b" stroke-width="1.1" stroke-linecap="round"/><line x1="180" y1="180" x2="428" y2="180" stroke="#111111" stroke-width="2.2" stroke-linecap="round"/><line x1="428" y1="180" x2="626" y2="-18" stroke="#2b2b2b" stroke-width="1.1" stroke-linecap="round"/><line x1="-18" y1="-18" x2="-18" y2="378" stroke="#2b2b2b" stroke-width="1.6" stroke-linecap="round"/><line x1="-18" y1="378" x2="180" y2="180" stroke="#2b2b2b" stroke-width="1.1" stroke-linecap="round"/><line x1="180" y1="180" x2="-18" y2="-18" stroke="#2b2b2b" stroke-width="1.1" stroke-linecap="round"/><line x1="626" y1="378" x2="626" y2="-18" stroke="#2b2b2b" stroke-width="1.6" stroke-linecap="round"/><line x1="626" y1="-18" x2="428" y2="180" stroke="#2b2b2b" stroke-width="1.1" stroke-linecap="round"/><line x1="428" y1="180" x2="626" y2="378" stroke="#2b2b2b" stroke-width="1.1" stroke-linecap="round"/><line x1="426" y1="378" x2="426" y2="450" stroke="#2b2b2b" stroke-width="1.6" stroke-linecap="round"/><line x1="426" y1="450" x2="498" y2="378" stroke="#2b2b2b" stroke-width="1.1" stroke-linecap="round"/><line x1="498" y1="378" x2="526" y2="350" stroke="#2b2b2b" stroke-width="1.1" stroke-linecap="round"/><line x1="526" y1="350" x2="526" y2="278.1" stroke="#111111" stroke-width="2.2" stroke-linecap="round"/><line x1="526" y1="278.1" x2="426.1" y2="378" stroke="#2b2b2b" stroke-width="1.1" stroke-linecap="round"/><line x1="626" y1="450" x2="626" y2="378" stroke="#2b2b2b" stroke-width="1.6" stroke-linecap="round"/><line x1="554" y1="378" x2="626" y2="450" stroke="#2b2b2b" stroke-width="1.1" stroke-linecap="round"/><line x1="526" y1="278.1" x2="526" y2="350" stroke="#111111" stroke-width="2.2" stroke-linecap="round"/><line x1="526" y1="350" x2="554" y2="378" stroke="#2b2b2b" stroke-width="1.1" stroke-linecap="round"/><line x1="426" y1="450" x2="626" y2="450" stroke="#2b2b2b" stroke-width="1.6" stroke-linecap="round"/><line x1="626" y1="450" x2="526" y2="350" stroke="#2b2b2b" stroke-width="1.1" stroke-linecap="round"/><line x1="526" y1="350" x2="426" y2="450" stroke="#2b2b2b" stroke-width="1.1" stroke-linecap="round"/><line x1="-18" y1="378" x2="-18" y2="646" stroke="#2b2b2b" stroke-width="1.6" stroke-linecap="round"/><line x1="-18" y1="646" x2="126" y2="646" stroke="#2b2b2b" stroke-width="1.6" stroke-linecap="round"/><line x1="126" y1="646" x2="126" y2="378" stroke="#111111" stroke-width="2.2" stroke-linecap="round"/><line x1="126" y1="378" x2="126" y2="234.1" stroke="#111111" stroke-width="2.2" stroke-linecap="round"/><line x1="126" y1="646" x2="234" y2="646" stroke="#2b2b2b" stroke-width="1.6" stroke-linecap="round"/><line x1="234" y1="342.1" x2="126" y2="234.1" stroke="#2b2b2b" stroke-width="1.1" stroke-linecap="round"/><line x1="126" y1="234.1" x2="126" y2="646" stroke="#111111" stroke-width="2.2" stroke-linecap="round"/><line x1="270" y1="646" x2="270" y2="458" stroke="#2b2b2b" stroke-width="1.6" stroke-linecap="round"/><line x1="270" y1="458" x2="234" y2="458" stroke="#2b2b2b" stroke-width="0.7" stroke-linecap="round" stroke-dasharray="3 3"/><line x1="234" y1="646" x2="270" y2="646" stroke="#2b2b2b" stroke-width="1.6" stroke-linecap="round"/><line x1="234" y1="458" x2="308" y2="458" stroke="#2b2b2b" stroke-width="1.6" stroke-linecap="round"/><line x1="308" y1="458" x2="308" y2="232.1" stroke="#111111" stroke-width="2.2" stroke-linecap="round"/><line x1="308" y1="232.1" x2="234" y2="306.1" stroke="#2b2b2b" stroke-width="1.1" stroke-linecap="round"/><line x1="234" y1="306.1" x2="234" y2="458" stroke="#2b2b2b" stroke-width="1.6" stroke-linecap="round"/><line x1="308" y1="458" x2="382" y2="458" stroke="#2b2b2b" stroke-width="1.6" stroke-linecap="round"/><line x1="382" y1="458" x2="382" y2="306.1" stroke="#2b2b2b" stroke-width="1.6" stroke-linecap="round"/><line x1="382" y1="306.1" x2="308" y2="232.1" stroke="#2b2b2b" stroke-width="1.1" stroke-linecap="round"/><line x1="308" y1="232.1" x2="308" y2="458" stroke="#111111" stroke-width="2.2" stroke-linecap="round"/><line x1="433.59" y1="258.5" x2="433.59" y2="298.5" stroke="#333333" stroke-width="0.9"/><polygon points="433.59,298.5 430.59,292.5 436.59,292.5" fill="#333333"/><text x="443.59" y="278.5" font-size="6.5" fill="#1f1f1f" text-anchor="middle" transform="rotate(-90 443.59 278.5)">6:12 PITCH</text><line x1="304" y1="86.35" x2="304" y2="46.35" stroke="#333333" stroke-width="0.9"/><polygon points="304,46.35 307,52.35 301,52.35" fill="#333333"/><text x="314" y="66.35" font-size="6.5" fill="#1f1f1f" text-anchor="middle" transform="rotate(-90 314 66.35)">6:12 PITCH</text><line x1="68" y1="180" x2="28" y2="180" stroke="#333333" stroke-width="0.9"/><polygon points="28,180 34,177 34,183" fill="#333333"/><text x="48" y="175" font-size="6.5" fill="#1f1f1f" text-anchor="middle">6:12 PITCH</text><line x1="540" y1="180" x2="580" y2="180" stroke="#333333" stroke-width="0.9"/><polygon points="580,180 574,183 574,177" fill="#333333"/><text x="560" y="175" font-size="6.5" fill="#1f1f1f" text-anchor="middle">6:12 PITCH</text><line x1="502.52" y1="342.66" x2="478.79" y2="342.66" stroke="#333333" stroke-width="0.9"/><polygon points="478.79,342.66 484.79,339.66 484.79,345.66" fill="#333333"/><text x="490.66" y="337.66" font-size="6.5" fill="#1f1f1f" text-anchor="middle">6:12 PITCH</text><line x1="549.48" y1="342.66" x2="573.21" y2="342.66" stroke="#333333" stroke-width="0.9"/><polygon points="573.21,342.66 567.21,345.66 567.21,339.66" fill="#333333"/><text x="561.34" y="337.66" font-size="6.5" fill="#1f1f1f" text-anchor="middle">6:12 PITCH</text><line x1="526" y1="399.17" x2="526" y2="434.17" stroke="#333333" stroke-width="0.9"/><polygon points="526,434.17 523,428.17 529,428.17" fill="#333333"/><text x="536" y="416.67" font-size="6.5" fill="#1f1f1f" text-anchor="middle" transform="rotate(-90 536 416.67)">6:12 PITCH</text><line x1="74" y1="512" x2="34" y2="512" stroke="#333333" stroke-width="0.9"/><polygon points="34,512 40,509 40,515" fill="#333333"/><text x="54" y="507" font-size="6.5" fill="#1f1f1f" text-anchor="middle">6:12 PITCH</text><line x1="157.28" y1="465.69" x2="197.28" y2="465.69" stroke="#333333" stroke-width="0.9"/><polygon points="197.28,465.69 191.28,468.69 191.28,462.69" fill="#333333"/><text x="177.28" y="460.69" font-size="6.5" fill="#1f1f1f" text-anchor="middle">6:12 PITCH</text><line x1="293.42" y1="362.34" x2="253.42" y2="362.34" stroke="#333333" stroke-width="0.9"/><polygon points="253.42,362.34 259.42,359.34 259.42,365.34" fill="#333333"/><text x="273.42" y="357.34" font-size="6.5" fill="#1f1f1f" text-anchor="middle">6:12 PITCH</text><line x1="322.58" y1="362.34" x2="362.58" y2="362.34" stroke="#333333" stroke-width="0.9"/><polygon points="362.58,362.34 356.58,365.34 356.58,359.34" fill="#333333"/><text x="342.58" y="357.34" font-size="6.5" fill="#1f1f1f" text-anchor="middle">6:12 PITCH</text><text x="304" y="176" font-size="6" fill="#1f1f1f" text-anchor="middle">RIDGE VNT. — 16'-7&quot; RIDGE</text><text x="522" y="314" font-size="6" fill="#1f1f1f" text-anchor="middle" transform="rotate(-90 522 314)">RIDGE VNT. — 12'-6&quot; RIDGE</text><text x="122" y="440" font-size="6" fill="#1f1f1f" text-anchor="middle" transform="rotate(-90 122 440)">RIDGE VNT. — 14'-4&quot; RIDGE</text><text x="304" y="345" font-size="6" fill="#1f1f1f" text-anchor="middle" transform="rotate(-90 304 345)">RIDGE VNT. — 14'-5&quot; RIDGE</text><text x="-52" y="700" font-size="6.5" fill="#1f1f1f">NOTE: ALL ROOF OVERHANGS TO BE 18" FROM FRAME, UNLESS NOTED OTHERWISE.</text><text x="-52" y="709" font-size="6.5" fill="#1f1f1f">1. NAILS FOR SECURING SHINGLES SHALL BE CORROSION RESISTANT.  2. METAL FLASHING SHALL BE PROVIDED AT ROOF INTERSECTIONS, ADJOINING WALLS AND PROJECTIONS THRU ROOF.</text><text x="-52" y="718" font-size="6.5" fill="#1f1f1f">6:12 PITCH ALL PLANES · COMPOSITION SHINGLES · RIDGE VENTS · PLATE 9'-1&quot; (COV. PORCH 12'-1&quot;)</text><text x="-52" y="746" font-size="16" font-style="italic" fill="#1f1f1f" letter-spacing="1.5">ROOF PLAN</text><line x1="-52" y1="750" x2="63" y2="750" stroke="#1f1f1f" stroke-width="1.6"/><text x="63" y="757" font-size="6.5" fill="#1f1f1f" text-anchor="end">SCALE: 1/8" = 1'-0"</text></svg>