<svg xmlns="http://www.w3.org/2000/svg" version="1.1" width="1644" height="1880" viewBox="-141.9 -213.9 821.8 939.8" font-family="'Segoe UI', Helvetica, Arial, sans-serif" data-floorplan="1.0.0">
<title>SF 1258 F (baseline, as drawn)</title>
<defs><pattern id="fpHatch" patternUnits="userSpaceOnUse" width="8" height="8"><path d="M0 8L8 0" stroke="#bdbdbd" stroke-width="0.3" fill="none"/></pattern></defs>
<rect x="-141.9" y="-213.9" width="821.8" height="939.8" fill="#fff"/>
<g id="fp-walls"><path d="M0 0L538 0L538 380L394 380L394 316L0 316Z" fill="#555555" shape-rendering="crispEdges"/><path d="M0 316L240 316L240 584L0 584Z" fill="#555555" shape-rendering="crispEdges"/></g>
<g id="fp-floors"><path d="M6 6L170 6L170 144L6 144Z" fill="#ffffff" shape-rendering="crispEdges"/><path d="M6 148L50 148L50 206L6 206Z" fill="#ffffff" shape-rendering="crispEdges"/><path d="M54 148L126 148L126 208L90 208L90 250L6 250L6 210L54 210Z" fill="#ffffff" shape-rendering="crispEdges"/><path d="M94 212L122 212L122 248L94 248Z" fill="#ffffff" shape-rendering="crispEdges"/><path d="M130 148L170 148L170 162L198 162L198 210L130 210Z" fill="#ffffff" shape-rendering="crispEdges"/><path d="M6 254L118 254L118 310L6 310Z" fill="#ffffff" shape-rendering="crispEdges"/><path d="M124 214L200 214L200 310L124 310Z" fill="#ffffff" shape-rendering="crispEdges"/><path d="M174 6L234 6L234 66L174 66Z" fill="#ffffff" shape-rendering="crispEdges"/><path d="M238 6L310 6L310 158L174 158L174 70L238 70Z" fill="#ffffff" shape-rendering="crispEdges"/><path d="M310 6L396 6L396 158L310 158Z" fill="#ffffff" shape-rendering="crispEdges"/><path d="M204 158L396 158L396 310L204 310Z" fill="#ffffff" shape-rendering="crispEdges"/><path d="M400 6L532 6L532 122L400 122Z" fill="#ffffff" shape-rendering="crispEdges"/><path d="M444 126L532 126L532 150L444 150Z" fill="#ffffff" shape-rendering="crispEdges"/><path d="M400 126L440 126L440 250L400 250Z" fill="#ffffff" shape-rendering="crispEdges"/><path d="M444 154L532 154L532 218L474 218L474 248L444 248Z" fill="#ffffff" shape-rendering="crispEdges"/><path d="M478 222L532 222L532 248L478 248Z" fill="#ffffff" shape-rendering="crispEdges"/><path d="M400 254L532 254L532 374L400 374Z" fill="#ffffff" shape-rendering="crispEdges"/><path d="M6 316L234 316L234 578L6 578Z" fill="#ffffff" shape-rendering="crispEdges"/></g>
<g id="fp-slabs"><path d="M240 316L340 316L340 388L240 388Z" fill="#f4f4f4" shape-rendering="crispEdges"/><path d="M240 316L340 316L340 388L240 388Z" fill="url(#fpHatch)"/><path d="M240 316L340 316L340 388L240 388Z" fill="none" stroke="#6a6a6a" stroke-width="0.3"/><path d="M300 -72L372 -72L372 0L300 0Z" fill="#f4f4f4" shape-rendering="crispEdges"/><path d="M300 -72L372 -72L372 0L300 0Z" fill="none" stroke="#6a6a6a" stroke-width="0.3"/><rect x="240" y="364" width="24" height="24" fill="#555555" shape-rendering="crispEdges"/><rect x="316" y="364" width="24" height="24" fill="#555555" shape-rendering="crispEdges"/></g>
<g id="fp-outlines"><line x1="310" y1="6" x2="310" y2="158" stroke="#9a9a9a" stroke-width="0.35" stroke-dasharray="3 3"/><line x1="204" y1="158" x2="310" y2="158" stroke="#9a9a9a" stroke-width="0.35" stroke-dasharray="3 3"/><line x1="310" y1="158" x2="396" y2="158" stroke="#9a9a9a" stroke-width="0.35" stroke-dasharray="3 3"/><line x1="6" y1="6" x2="170" y2="6" stroke="#111111" stroke-width="0.35"/><line x1="170" y1="6" x2="170" y2="144" stroke="#111111" stroke-width="0.35"/><line x1="6" y1="144" x2="170" y2="144" stroke="#111111" stroke-width="0.35"/><line x1="6" y1="6" x2="6" y2="144" stroke="#111111" stroke-width="0.35"/><line x1="6" y1="148" x2="50" y2="148" stroke="#111111" stroke-width="0.35"/><line x1="50" y1="148" x2="50" y2="206" stroke="#111111" stroke-width="0.35"/><line x1="6" y1="206" x2="50" y2="206" stroke="#111111" stroke-width="0.35"/><line x1="6" y1="148" x2="6" y2="206" stroke="#111111" stroke-width="0.35"/><line x1="54" y1="148" x2="126" y2="148" stroke="#111111" stroke-width="0.35"/><line x1="126" y1="148" x2="126" y2="208" stroke="#111111" stroke-width="0.35"/><line x1="90" y1="208" x2="126" y2="208" stroke="#111111" stroke-width="0.35"/><line x1="90" y1="208" x2="90" y2="250" stroke="#111111" stroke-width="0.35"/><line x1="6" y1="250" x2="90" y2="250" stroke="#111111" stroke-width="0.35"/><line x1="6" y1="210" x2="6" y2="250" stroke="#111111" stroke-width="0.35"/><line x1="6" y1="210" x2="54" y2="210" stroke="#111111" stroke-width="0.35"/><line x1="54" y1="148" x2="54" y2="210" stroke="#111111" stroke-width="0.35"/><line x1="94" y1="212" x2="122" y2="212" stroke="#111111" stroke-width="0.35"/><line x1="122" y1="212" x2="122" y2="248" stroke="#111111" stroke-width="0.35"/><line x1="94" y1="248" x2="122" y2="248" stroke="#111111" stroke-width="0.35"/><line x1="94" y1="212" x2="94" y2="248" stroke="#111111" stroke-width="0.35"/><line x1="130" y1="148" x2="170" y2="148" stroke="#111111" stroke-width="0.35"/><line x1="170" y1="148" x2="170" y2="162" stroke="#111111" stroke-width="0.35"/><line x1="170" y1="162" x2="198" y2="162" stroke="#111111" stroke-width="0.35"/><line x1="198" y1="162" x2="198" y2="210" stroke="#111111" stroke-width="0.35"/><line x1="130" y1="210" x2="198" y2="210" stroke="#111111" stroke-width="0.35"/><line x1="130" y1="148" x2="130" y2="210" stroke="#111111" stroke-width="0.35"/><line x1="6" y1="254" x2="118" y2="254" stroke="#111111" stroke-width="0.35"/><line x1="118" y1="254" x2="118" y2="310" stroke="#111111" stroke-width="0.35"/><line x1="6" y1="310" x2="118" y2="310" stroke="#111111" stroke-width="0.35"/><line x1="6" y1="254" x2="6" y2="310" stroke="#111111" stroke-width="0.35"/><line x1="124" y1="214" x2="200" y2="214" stroke="#111111" stroke-width="0.35"/><line x1="200" y1="214" x2="200" y2="310" stroke="#111111" stroke-width="0.35"/><line x1="124" y1="310" x2="200" y2="310" stroke="#111111" stroke-width="0.35"/><line x1="124" y1="214" x2="124" y2="310" stroke="#111111" stroke-width="0.35"/><line x1="174" y1="6" x2="234" y2="6" stroke="#111111" stroke-width="0.35"/><line x1="234" y1="6" x2="234" y2="66" stroke="#111111" stroke-width="0.35"/><line x1="174" y1="66" x2="234" y2="66" stroke="#111111" stroke-width="0.35"/><line x1="174" y1="6" x2="174" y2="66" stroke="#111111" stroke-width="0.35"/><line x1="238" y1="6" x2="310" y2="6" stroke="#111111" stroke-width="0.35"/><line x1="174" y1="158" x2="204" y2="158" stroke="#111111" stroke-width="0.35"/><line x1="174" y1="70" x2="174" y2="158" stroke="#111111" stroke-width="0.35"/><line x1="174" y1="70" x2="238" y2="70" stroke="#111111" stroke-width="0.35"/><line x1="238" y1="6" x2="238" y2="70" stroke="#111111" stroke-width="0.35"/><line x1="310" y1="6" x2="396" y2="6" stroke="#111111" stroke-width="0.35"/><line x1="396" y1="6" x2="396" y2="158" stroke="#111111" stroke-width="0.35"/><line x1="396" y1="158" x2="396" y2="310" stroke="#111111" stroke-width="0.35"/><line x1="204" y1="310" x2="396" y2="310" stroke="#111111" stroke-width="0.35"/><line x1="204" y1="158" x2="204" y2="310" stroke="#111111" stroke-width="0.35"/><line x1="400" y1="6" x2="532" y2="6" stroke="#111111" stroke-width="0.35"/><line x1="532" y1="6" x2="532" y2="122" stroke="#111111" stroke-width="0.35"/><line x1="400" y1="122" x2="532" y2="122" stroke="#111111" stroke-width="0.35"/><line x1="400" y1="6" x2="400" y2="122" stroke="#111111" stroke-width="0.35"/><line x1="444" y1="126" x2="532" y2="126" stroke="#111111" stroke-width="0.35"/><line x1="532" y1="126" x2="532" y2="150" stroke="#111111" stroke-width="0.35"/><line x1="444" y1="150" x2="532" y2="150" stroke="#111111" stroke-width="0.35"/><line x1="444" y1="126" x2="444" y2="150" stroke="#111111" stroke-width="0.35"/><line x1="400" y1="126" x2="440" y2="126" stroke="#111111" stroke-width="0.35"/><line x1="440" y1="126" x2="440" y2="250" stroke="#111111" stroke-width="0.35"/><line x1="400" y1="250" x2="440" y2="250" stroke="#111111" stroke-width="0.35"/><line x1="400" y1="126" x2="400" y2="250" stroke="#111111" stroke-width="0.35"/><line x1="444" y1="154" x2="532" y2="154" stroke="#111111" stroke-width="0.35"/><line x1="532" y1="154" x2="532" y2="218" stroke="#111111" stroke-width="0.35"/><line x1="474" y1="218" x2="532" y2="218" stroke="#111111" stroke-width="0.35"/><line x1="474" y1="218" x2="474" y2="248" stroke="#111111" stroke-width="0.35"/><line x1="444" y1="248" x2="474" y2="248" stroke="#111111" stroke-width="0.35"/><line x1="444" y1="154" x2="444" y2="248" stroke="#111111" stroke-width="0.35"/><line x1="478" y1="222" x2="532" y2="222" stroke="#111111" stroke-width="0.35"/><line x1="532" y1="222" x2="532" y2="248" stroke="#111111" stroke-width="0.35"/><line x1="478" y1="248" x2="532" y2="248" stroke="#111111" stroke-width="0.35"/><line x1="478" y1="222" x2="478" y2="248" stroke="#111111" stroke-width="0.35"/><line x1="400" y1="254" x2="532" y2="254" stroke="#111111" stroke-width="0.35"/><line x1="532" y1="254" x2="532" y2="374" stroke="#111111" stroke-width="0.35"/><line x1="400" y1="374" x2="532" y2="374" stroke="#111111" stroke-width="0.35"/><line x1="400" y1="254" x2="400" y2="374" stroke="#111111" stroke-width="0.35"/><line x1="6" y1="316" x2="234" y2="316" stroke="#111111" stroke-width="0.35"/><line x1="234" y1="316" x2="234" y2="578" stroke="#111111" stroke-width="0.35"/><line x1="6" y1="578" x2="234" y2="578" stroke="#111111" stroke-width="0.35"/><line x1="6" y1="316" x2="6" y2="578" stroke="#111111" stroke-width="0.35"/><line x1="0" y1="0" x2="538" y2="0" stroke="#111111" stroke-width="0.6"/><line x1="538" y1="0" x2="538" y2="380" stroke="#111111" stroke-width="0.6"/><line x1="394" y1="380" x2="538" y2="380" stroke="#111111" stroke-width="0.6"/><line x1="394" y1="316" x2="394" y2="380" stroke="#111111" stroke-width="0.6"/><line x1="240" y1="316" x2="394" y2="316" stroke="#111111" stroke-width="0.6"/><line x1="0" y1="0" x2="0" y2="316" stroke="#111111" stroke-width="0.6"/><line x1="240" y1="316" x2="240" y2="584" stroke="#111111" stroke-width="0.6"/><line x1="0" y1="584" x2="240" y2="584" stroke="#111111" stroke-width="0.6"/><line x1="0" y1="316" x2="0" y2="584" stroke="#111111" stroke-width="0.6"/></g>
<g id="fp-openings"><rect x="24" y="577.7" width="192" height="6.6" fill="#ffffff" shape-rendering="crispEdges"/><line x1="24" y1="577.7" x2="24" y2="584.3" stroke="#111111" stroke-width="0.45"/><line x1="216" y1="577.7" x2="216" y2="584.3" stroke="#111111" stroke-width="0.45"/><rect x="274" y="309.7" width="36" height="6.6" fill="#ffffff" shape-rendering="crispEdges"/><line x1="274" y1="309.7" x2="274" y2="316.3" stroke="#111111" stroke-width="0.45"/><line x1="310" y1="309.7" x2="310" y2="316.3" stroke="#111111" stroke-width="0.45"/><rect x="150" y="309.7" width="36" height="6.6" fill="#ffffff" shape-rendering="crispEdges"/><line x1="150" y1="309.7" x2="150" y2="316.3" stroke="#111111" stroke-width="0.45"/><line x1="186" y1="309.7" x2="186" y2="316.3" stroke="#111111" stroke-width="0.45"/><rect x="306" y="-0.3" width="60" height="6.6" fill="#ffffff" shape-rendering="crispEdges"/><line x1="306" y1="-0.3" x2="306" y2="6.3" stroke="#111111" stroke-width="0.45"/><line x1="366" y1="-0.3" x2="366" y2="6.3" stroke="#111111" stroke-width="0.45"/><rect x="132" y="143.7" width="36" height="4.6" fill="#ffffff" shape-rendering="crispEdges"/><line x1="132" y1="143.7" x2="132" y2="148.3" stroke="#111111" stroke-width="0.45"/><line x1="168" y1="143.7" x2="168" y2="148.3" stroke="#111111" stroke-width="0.45"/><rect x="58" y="143.7" width="36" height="4.6" fill="#ffffff" shape-rendering="crispEdges"/><line x1="58" y1="143.7" x2="58" y2="148.3" stroke="#111111" stroke-width="0.45"/><line x1="94" y1="143.7" x2="94" y2="148.3" stroke="#111111" stroke-width="0.45"/><rect x="158" y="209.7" width="36" height="4.6" fill="#ffffff" shape-rendering="crispEdges"/><line x1="158" y1="209.7" x2="158" y2="214.3" stroke="#111111" stroke-width="0.45"/><line x1="194" y1="209.7" x2="194" y2="214.3" stroke="#111111" stroke-width="0.45"/><rect x="233.7" y="33" width="4.6" height="30" fill="#ffffff" shape-rendering="crispEdges"/><line x1="233.7" y1="33" x2="238.3" y2="33" stroke="#111111" stroke-width="0.45"/><line x1="233.7" y1="63" x2="238.3" y2="63" stroke="#111111" stroke-width="0.45"/><rect x="56" y="249.7" width="32" height="4.6" fill="#ffffff" shape-rendering="crispEdges"/><line x1="56" y1="249.7" x2="56" y2="254.3" stroke="#111111" stroke-width="0.45"/><line x1="88" y1="249.7" x2="88" y2="254.3" stroke="#111111" stroke-width="0.45"/><rect x="404" y="121.7" width="32" height="4.6" fill="#ffffff" shape-rendering="crispEdges"/><line x1="404" y1="121.7" x2="404" y2="126.3" stroke="#111111" stroke-width="0.45"/><line x1="436" y1="121.7" x2="436" y2="126.3" stroke="#111111" stroke-width="0.45"/><rect x="439.7" y="184" width="4.6" height="32" fill="#ffffff" shape-rendering="crispEdges"/><line x1="439.7" y1="184" x2="444.3" y2="184" stroke="#111111" stroke-width="0.45"/><line x1="439.7" y1="216" x2="444.3" y2="216" stroke="#111111" stroke-width="0.45"/><rect x="404" y="249.7" width="32" height="4.6" fill="#ffffff" shape-rendering="crispEdges"/><line x1="404" y1="249.7" x2="404" y2="254.3" stroke="#111111" stroke-width="0.45"/><line x1="436" y1="249.7" x2="436" y2="254.3" stroke="#111111" stroke-width="0.45"/><rect x="488" y="247.7" width="32" height="6.6" fill="#ffffff" shape-rendering="crispEdges"/><line x1="488" y1="247.7" x2="488" y2="254.3" stroke="#111111" stroke-width="0.45"/><line x1="520" y1="247.7" x2="520" y2="254.3" stroke="#111111" stroke-width="0.45"/><rect x="464" y="121.7" width="48" height="4.6" fill="#ffffff" shape-rendering="crispEdges"/><line x1="464" y1="121.7" x2="464" y2="126.3" stroke="#111111" stroke-width="0.45"/><line x1="512" y1="121.7" x2="512" y2="126.3" stroke="#111111" stroke-width="0.45"/><rect x="197.7" y="168" width="6.6" height="36" fill="#ffffff" shape-rendering="crispEdges"/><line x1="197.7" y1="168" x2="204.3" y2="168" stroke="#111111" stroke-width="0.45"/><line x1="197.7" y1="204" x2="204.3" y2="204" stroke="#111111" stroke-width="0.45"/><rect x="96" y="207.7" width="24" height="4.6" fill="#ffffff" shape-rendering="crispEdges"/><line x1="96" y1="207.7" x2="96" y2="212.3" stroke="#111111" stroke-width="0.45"/><line x1="120" y1="207.7" x2="120" y2="212.3" stroke="#111111" stroke-width="0.45"/><rect x="395.7" y="158" width="4.6" height="36" fill="#ffffff" shape-rendering="crispEdges"/><line x1="395.7" y1="158" x2="400.3" y2="158" stroke="#111111" stroke-width="0.45"/><line x1="395.7" y1="194" x2="400.3" y2="194" stroke="#111111" stroke-width="0.45"/><rect x="49.7" y="162" width="4.6" height="32" fill="#ffffff" shape-rendering="crispEdges"/><line x1="49.7" y1="162" x2="54.3" y2="162" stroke="#111111" stroke-width="0.45"/><line x1="49.7" y1="194" x2="54.3" y2="194" stroke="#111111" stroke-width="0.45"/><rect x="52" y="-0.3" width="72" height="6.6" fill="#ffffff" shape-rendering="crispEdges"/><line x1="52" y1="1.9" x2="124" y2="1.9" stroke="#111111" stroke-width="0.45"/><line x1="52" y1="4.1" x2="124" y2="4.1" stroke="#111111" stroke-width="0.45"/><line x1="52" y1="-0.3" x2="52" y2="6.3" stroke="#111111" stroke-width="0.45"/><line x1="124" y1="-0.3" x2="124" y2="6.3" stroke="#111111" stroke-width="0.45"/><rect x="430" y="-0.3" width="72" height="6.6" fill="#ffffff" shape-rendering="crispEdges"/><line x1="430" y1="1.9" x2="502" y2="1.9" stroke="#111111" stroke-width="0.45"/><line x1="430" y1="4.1" x2="502" y2="4.1" stroke="#111111" stroke-width="0.45"/><line x1="430" y1="-0.3" x2="430" y2="6.3" stroke="#111111" stroke-width="0.45"/><line x1="502" y1="-0.3" x2="502" y2="6.3" stroke="#111111" stroke-width="0.45"/><rect x="430" y="373.7" width="72" height="6.6" fill="#ffffff" shape-rendering="crispEdges"/><line x1="430" y1="375.9" x2="502" y2="375.9" stroke="#111111" stroke-width="0.45"/><line x1="430" y1="378.1" x2="502" y2="378.1" stroke="#111111" stroke-width="0.45"/><line x1="430" y1="373.7" x2="430" y2="380.3" stroke="#111111" stroke-width="0.45"/><line x1="502" y1="373.7" x2="502" y2="380.3" stroke="#111111" stroke-width="0.45"/><rect x="256" y="-0.3" width="36" height="6.6" fill="#ffffff" shape-rendering="crispEdges"/><line x1="256" y1="1.9" x2="292" y2="1.9" stroke="#111111" stroke-width="0.45"/><line x1="256" y1="4.1" x2="292" y2="4.1" stroke="#111111" stroke-width="0.45"/><line x1="256" y1="-0.3" x2="256" y2="6.3" stroke="#111111" stroke-width="0.45"/><line x1="292" y1="-0.3" x2="292" y2="6.3" stroke="#111111" stroke-width="0.45"/><rect x="346" y="309.7" width="48" height="6.6" fill="#ffffff" shape-rendering="crispEdges"/><line x1="346" y1="311.9" x2="394" y2="311.9" stroke="#111111" stroke-width="0.45"/><line x1="346" y1="314.1" x2="394" y2="314.1" stroke="#111111" stroke-width="0.45"/><line x1="346" y1="309.7" x2="346" y2="316.3" stroke="#111111" stroke-width="0.45"/><line x1="394" y1="309.7" x2="394" y2="316.3" stroke="#111111" stroke-width="0.45"/><rect x="-0.3" y="159" width="6.6" height="36" fill="#ffffff" shape-rendering="crispEdges"/><line x1="1.9" y1="159" x2="1.9" y2="195" stroke="#111111" stroke-width="0.45"/><line x1="4.1" y1="159" x2="4.1" y2="195" stroke="#111111" stroke-width="0.45"/><line x1="-0.3" y1="159" x2="6.3" y2="159" stroke="#111111" stroke-width="0.45"/><line x1="-0.3" y1="195" x2="6.3" y2="195" stroke="#111111" stroke-width="0.45"/><rect x="531.7" y="168" width="6.6" height="36" fill="#ffffff" shape-rendering="crispEdges"/><line x1="533.9" y1="168" x2="533.9" y2="204" stroke="#111111" stroke-width="0.45"/><line x1="536.1" y1="168" x2="536.1" y2="204" stroke="#111111" stroke-width="0.45"/><line x1="531.7" y1="168" x2="538.3" y2="168" stroke="#111111" stroke-width="0.45"/><line x1="531.7" y1="204" x2="538.3" y2="204" stroke="#111111" stroke-width="0.45"/><rect x="260" y="309.7" width="12" height="6.6" fill="#ffffff" shape-rendering="crispEdges"/><line x1="260" y1="311.9" x2="272" y2="311.9" stroke="#111111" stroke-width="0.45"/><line x1="260" y1="314.1" x2="272" y2="314.1" stroke="#111111" stroke-width="0.45"/><line x1="260" y1="309.7" x2="260" y2="316.3" stroke="#111111" stroke-width="0.45"/><line x1="272" y1="309.7" x2="272" y2="316.3" stroke="#111111" stroke-width="0.45"/><rect x="312" y="309.7" width="12" height="6.6" fill="#ffffff" shape-rendering="crispEdges"/><line x1="312" y1="311.9" x2="324" y2="311.9" stroke="#111111" stroke-width="0.45"/><line x1="312" y1="314.1" x2="324" y2="314.1" stroke="#111111" stroke-width="0.45"/><line x1="312" y1="309.7" x2="312" y2="316.3" stroke="#111111" stroke-width="0.45"/><line x1="324" y1="309.7" x2="324" y2="316.3" stroke="#111111" stroke-width="0.45"/></g>
<g id="fp-fixtures"><g transform="translate(28 177) rotate(0)"><rect x="-22" y="-29" width="44" height="58" fill="none" stroke="#444444" stroke-width="0.4"/><line x1="-22" y1="-29" x2="22" y2="29" stroke="#444444" stroke-width="0.28"/><line x1="22" y1="-29" x2="-22" y2="29" stroke="#444444" stroke-width="0.28"/><circle cx="0" cy="0" r="1.6" fill="none" stroke="#444444" stroke-width="0.4"/></g><g transform="translate(26 228) rotate(270)"><rect x="-11.76" y="-10" width="23.52" height="6" fill="none" stroke="#444444" stroke-width="0.4" rx="0.8"/><ellipse cx="0" cy="3.1" rx="5.61" ry="6.6" fill="none" stroke="#444444" stroke-width="0.4"/></g><g transform="translate(115 177) rotate(90)"><rect x="-29" y="-11" width="58" height="22" fill="none" stroke="#444444" stroke-width="0.4"/><ellipse cx="-14.5" cy="1.32" rx="8" ry="6.6" fill="none" stroke="#444444" stroke-width="0.4"/><circle cx="-14.5" cy="-7.48" r="0.9" fill="#444444"/><ellipse cx="14.5" cy="1.32" rx="8" ry="6.6" fill="none" stroke="#444444" stroke-width="0.4"/><circle cx="14.5" cy="-7.48" r="0.9" fill="#444444"/></g><g transform="translate(186 114) rotate(0)"><rect x="-12" y="-44" width="24" height="88" fill="none" stroke="#444444" stroke-width="0.4"/></g><g transform="translate(186 87) rotate(270)"><rect x="-15" y="-12" width="30" height="24" fill="none" stroke="#444444" stroke-width="0.4"/><circle cx="-7.5" cy="-5.76" r="3.6" fill="none" stroke="#444444" stroke-width="0.4"/><circle cx="7.5" cy="-5.76" r="3.6" fill="none" stroke="#444444" stroke-width="0.4"/><circle cx="-7.5" cy="5.76" r="3.06" fill="none" stroke="#444444" stroke-width="0.4"/><circle cx="7.5" cy="5.76" r="3.06" fill="none" stroke="#444444" stroke-width="0.4"/></g><g transform="translate(186 142) rotate(270)"><rect x="-16" y="-12" width="32" height="24" fill="none" stroke="#444444" stroke-width="0.4"/><line x1="-16" y1="10" x2="16" y2="10" stroke="#444444" stroke-width="0.32"/><g transform="rotate(-270)"><text x="0" y="1.575" font-size="4.5" text-anchor="middle" fill="#444444" font-weight="500">REF</text></g></g><g transform="translate(274 18) rotate(0)"><rect x="-36" y="-12" width="72" height="24" fill="none" stroke="#444444" stroke-width="0.4"/></g><g transform="translate(258 18) rotate(0)"><rect x="-12" y="-12" width="24" height="24" fill="none" stroke="#444444" stroke-width="0.4"/><g transform="rotate(0)"><text x="0" y="1.575" font-size="4.5" text-anchor="middle" fill="#444444" font-weight="500">DW</text></g></g><g transform="translate(289 17) rotate(0)"><rect x="-15" y="-11" width="30" height="22" fill="none" stroke="#444444" stroke-width="0.4"/><rect x="-12.5" y="-7" width="25" height="15.5" fill="none" stroke="#444444" stroke-width="0.4" rx="2"/><circle cx="0" cy="-8.75" r="0.9" fill="#444444"/></g><g transform="translate(269 112) rotate(0)"><rect x="-18" y="-36" width="36" height="72" fill="none" stroke="#444444" stroke-width="0.4"/><line x1="6" y1="-35" x2="6" y2="35" stroke="#444444" stroke-width="0.32" stroke-dasharray="2.5 1.5"/></g><g transform="translate(138 237) rotate(270)"><rect x="-15" y="-14" width="30" height="28" fill="none" stroke="#444444" stroke-width="0.4"/><circle cx="0" cy="0" r="8.4" fill="none" stroke="#444444" stroke-width="0.4"/><g transform="rotate(-270)"><text x="0" y="2.744" font-size="7.84" text-anchor="middle" fill="#444444" font-weight="500">W</text></g></g><g transform="translate(138 271) rotate(270)"><rect x="-15" y="-14" width="30" height="28" fill="none" stroke="#444444" stroke-width="0.4"/><circle cx="0" cy="0" r="8.4" fill="none" stroke="#444444" stroke-width="0.4"/><g transform="rotate(-270)"><text x="0" y="2.744" font-size="7.84" text-anchor="middle" fill="#444444" font-weight="500">D</text></g></g><g transform="translate(24 340) rotate(0)"><circle cx="0" cy="0" r="12" fill="none" stroke="#444444" stroke-width="0.4"/><g transform="rotate(0)"><text x="0" y="2.52" font-size="7.2" text-anchor="middle" fill="#444444" font-weight="500">WH</text></g></g><g transform="translate(204 12) rotate(0)"><rect x="-30" y="-6" width="60" height="12" fill="none" stroke="#444444" stroke-width="0.4"/><line x1="-30" y1="0" x2="30" y2="0" stroke="#444444" stroke-width="0.28" stroke-dasharray="2 1.5"/></g><g transform="translate(468 165) rotate(0)"><rect x="-22" y="-11" width="44" height="22" fill="none" stroke="#444444" stroke-width="0.4"/><ellipse cx="0" cy="1.32" rx="8" ry="6.6" fill="none" stroke="#444444" stroke-width="0.4"/><circle cx="0" cy="-7.48" r="0.9" fill="#444444"/></g><g transform="translate(458 232) rotate(0)"><rect x="-8.4" y="-14" width="16.8" height="8.4" fill="none" stroke="#444444" stroke-width="0.4" rx="0.8"/><ellipse cx="0" cy="4.14" rx="7.854" ry="9.24" fill="none" stroke="#444444" stroke-width="0.4"/></g><g transform="translate(516 186) rotate(90)"><rect x="-30" y="-16" width="60" height="32" fill="none" stroke="#444444" stroke-width="0.4"/><rect x="-27" y="-13" width="54" height="26" fill="none" stroke="#444444" stroke-width="0.4" rx="6"/><circle cx="-22" cy="0" r="1.25" fill="none" stroke="#444444" stroke-width="0.4"/></g><g transform="translate(488 131) rotate(0)"><line x1="-44" y1="0" x2="44" y2="0" stroke="#444444" stroke-width="0.32" stroke-dasharray="2.5 1.5"/><line x1="-44" y1="1.5" x2="44" y2="1.5" stroke="#444444" stroke-width="0.32"/></g><g transform="translate(505 227) rotate(0)"><line x1="-27" y1="0" x2="27" y2="0" stroke="#444444" stroke-width="0.32" stroke-dasharray="2.5 1.5"/><line x1="-27" y1="1.5" x2="27" y2="1.5" stroke="#444444" stroke-width="0.32"/></g><g transform="translate(62 259) rotate(0)"><line x1="-56" y1="0" x2="56" y2="0" stroke="#444444" stroke-width="0.32" stroke-dasharray="2.5 1.5"/><line x1="-56" y1="1.5" x2="56" y2="1.5" stroke="#444444" stroke-width="0.32"/></g><g transform="translate(62 305) rotate(0)"><line x1="-56" y1="0" x2="56" y2="0" stroke="#444444" stroke-width="0.32" stroke-dasharray="2.5 1.5"/><line x1="-56" y1="1.5" x2="56" y2="1.5" stroke="#444444" stroke-width="0.32"/></g><g transform="translate(320 18) rotate(0)"><rect x="-10" y="-12" width="20" height="24" fill="none" stroke="#444444" stroke-width="0.4"/></g></g>
<g id="fp-doors"><line x1="24" y1="584" x2="216" y2="584" stroke="#111111" stroke-width="1.5"/><line x1="24" y1="577.4" x2="216" y2="577.4" stroke="#111111" stroke-width="0.35"/><line x1="26" y1="573" x2="214" y2="573" stroke="#111111" stroke-width="0.35" stroke-dasharray="4 2.5"/><line x1="310" y1="313" x2="310" y2="277" stroke="#111111" stroke-width="0.55"/><path d="M310 277A36 36 0 0 0 274 313" fill="none" stroke="#333333" stroke-width="0.4"/><line x1="186" y1="313" x2="186" y2="277" stroke="#111111" stroke-width="0.55"/><path d="M186 277A36 36 0 0 0 150 313" fill="none" stroke="#333333" stroke-width="0.4"/><line x1="306" y1="3" x2="306" y2="33" stroke="#111111" stroke-width="0.935" stroke-linecap="square"/><line x1="366" y1="3" x2="366" y2="33" stroke="#111111" stroke-width="0.935" stroke-linecap="square"/><path d="M306 33A30 30 0 0 0 336 3" fill="none" stroke="#333333" stroke-width="0.4"/><path d="M366 33A30 30 0 0 1 336 3" fill="none" stroke="#333333" stroke-width="0.4"/><line x1="132" y1="146" x2="132" y2="110" stroke="#111111" stroke-width="0.55"/><path d="M132 110A36 36 0 0 1 168 146" fill="none" stroke="#333333" stroke-width="0.4"/><line x1="58" y1="146" x2="58" y2="110" stroke="#111111" stroke-width="0.55"/><path d="M58 110A36 36 0 0 1 94 146" fill="none" stroke="#333333" stroke-width="0.4"/><line x1="194" y1="212" x2="194" y2="248" stroke="#111111" stroke-width="0.55"/><path d="M194 248A36 36 0 0 1 158 212" fill="none" stroke="#333333" stroke-width="0.4"/><line x1="236" y1="63" x2="266" y2="63" stroke="#111111" stroke-width="0.55"/><path d="M266 63A30 30 0 0 0 236 33" fill="none" stroke="#333333" stroke-width="0.4"/><line x1="56" y1="252" x2="56" y2="284" stroke="#111111" stroke-width="0.55"/><path d="M56 284A32 32 0 0 0 88 252" fill="none" stroke="#333333" stroke-width="0.4"/><line x1="404" y1="124" x2="404" y2="156" stroke="#111111" stroke-width="0.55"/><path d="M404 156A32 32 0 0 0 436 124" fill="none" stroke="#333333" stroke-width="0.4"/><line x1="442" y1="184" x2="474" y2="184" stroke="#111111" stroke-width="0.55"/><path d="M474 184A32 32 0 0 1 442 216" fill="none" stroke="#333333" stroke-width="0.4"/><line x1="404" y1="252" x2="404" y2="284" stroke="#111111" stroke-width="0.55"/><path d="M404 284A32 32 0 0 0 436 252" fill="none" stroke="#333333" stroke-width="0.4"/><line x1="520" y1="251" x2="520" y2="283" stroke="#111111" stroke-width="0.55"/><path d="M520 283A32 32 0 0 1 488 251" fill="none" stroke="#333333" stroke-width="0.4"/><line x1="464" y1="124" x2="464" y2="100" stroke="#111111" stroke-width="0.55"/><line x1="512" y1="124" x2="512" y2="100" stroke="#111111" stroke-width="0.55"/><path d="M464 100A24 24 0 0 1 488 124" fill="none" stroke="#333333" stroke-width="0.4"/><path d="M512 100A24 24 0 0 0 488 124" fill="none" stroke="#333333" stroke-width="0.4"/><line x1="201" y1="168" x2="201" y2="204" stroke="#111111" stroke-width="0.35" stroke-dasharray="3 2"/><line x1="96" y1="210" x2="96" y2="186" stroke="#111111" stroke-width="0.55"/><path d="M96 186A24 24 0 0 1 120 210" fill="none" stroke="#333333" stroke-width="0.4"/><line x1="398" y1="158" x2="398" y2="194" stroke="#111111" stroke-width="0.35" stroke-dasharray="3 2"/><line x1="52" y1="162" x2="84" y2="162" stroke="#111111" stroke-width="0.55"/><path d="M84 162A32 32 0 0 1 52 194" fill="none" stroke="#333333" stroke-width="0.4"/></g>
<g id="fp-labels"><text x="88" y="71.872" font-size="5" text-anchor="middle" fill="#111111" font-weight="600" letter-spacing="0.3">MSTR. SUITE</text><line x1="69.398" y1="72.972" x2="106.602" y2="72.972" stroke="#111111" stroke-width="0.25"/><text x="88" y="77.472" font-size="4.2" text-anchor="middle" fill="#111111">13'-8&quot; x 11'-6&quot;</text><text x="88" y="82.148" font-size="3.5" text-anchor="middle" fill="#111111" opacity="0.85">SLOPE CLG 4:12</text><text x="68.951" y="218" font-size="5" text-anchor="middle" fill="#111111" font-weight="600" letter-spacing="0.3">MSTR. BATH</text><line x1="51.25" y1="219.1" x2="86.652" y2="219.1" stroke="#111111" stroke-width="0.25"/><text x="68.951" y="223.6" font-size="4.2" text-anchor="middle" fill="#111111">10'-0&quot; x 8'-6&quot;</text><text x="68.951" y="228.276" font-size="3.5" text-anchor="middle" fill="#111111" opacity="0.85">9' CLG</text><text x="61.79" y="292" font-size="5" text-anchor="middle" fill="#111111" font-weight="600" letter-spacing="0.3">W.I.C.</text><line x1="53.539" y1="293.1" x2="70.04" y2="293.1" stroke="#111111" stroke-width="0.25"/><text x="61.79" y="297.6" font-size="4.2" text-anchor="middle" fill="#111111">9'-4&quot; x 4'-8&quot;</text><text x="61.79" y="302.276" font-size="3.5" text-anchor="middle" fill="#111111" opacity="0.85">9' CLG</text><text x="164.202" y="260" font-size="5" text-anchor="middle" fill="#111111" font-weight="600" letter-spacing="0.3">UTILITY</text><line x1="153.25" y1="261.1" x2="175.154" y2="261.1" stroke="#111111" stroke-width="0.25"/><text x="164.202" y="265.6" font-size="4.2" text-anchor="middle" fill="#111111">6'-4&quot; x 8'-0&quot;</text><text x="164.202" y="270.276" font-size="3.5" text-anchor="middle" fill="#111111" opacity="0.85">9' CLG</text><text x="204" y="33.344" font-size="4" text-anchor="middle" fill="#111111" font-weight="600" letter-spacing="0.3">PANTRY</text><line x1="194.489" y1="34.224" x2="213.511" y2="34.224" stroke="#111111" stroke-width="0.25"/><text x="204" y="37.864" font-size="3.4" text-anchor="middle" fill="#111111">5'-0&quot; x 5'-0&quot;</text><text x="204" y="41.816" font-size="3" text-anchor="middle" fill="#111111" opacity="0.85">9' CLG</text><text x="232.988" y="88" font-size="5" text-anchor="middle" fill="#111111" font-weight="600" letter-spacing="0.3">KITCHEN</text><line x1="220.237" y1="89.1" x2="245.738" y2="89.1" stroke="#111111" stroke-width="0.25"/><text x="232.988" y="93.6" font-size="4.2" text-anchor="middle" fill="#111111">11'-4&quot; x 12'-8&quot;</text><text x="232.988" y="98.276" font-size="3.5" text-anchor="middle" fill="#111111" opacity="0.85">SLOPE CLG 3:12</text><text x="353" y="78.872" font-size="5" text-anchor="middle" fill="#111111" font-weight="600" letter-spacing="0.3">DINING</text><line x1="342.8" y1="79.972" x2="363.2" y2="79.972" stroke="#111111" stroke-width="0.25"/><text x="353" y="84.472" font-size="4.2" text-anchor="middle" fill="#111111">7'-2&quot; x 12'-8&quot;</text><text x="353" y="89.148" font-size="3.5" text-anchor="middle" fill="#111111" opacity="0.85">SLOPE CLG 3:12</text><text x="300" y="230.872" font-size="5" text-anchor="middle" fill="#111111" font-weight="600" letter-spacing="0.3">LIVING</text><line x1="290.397" y1="231.972" x2="309.603" y2="231.972" stroke="#111111" stroke-width="0.25"/><text x="300" y="236.472" font-size="4.2" text-anchor="middle" fill="#111111">16'-0&quot; x 12'-8&quot;</text><text x="300" y="241.148" font-size="3.5" text-anchor="middle" fill="#111111" opacity="0.85">SLOPE CLG 3:12</text><text x="466" y="60.872" font-size="5" text-anchor="middle" fill="#111111" font-weight="600" letter-spacing="0.3">BEDROOM-3</text><line x1="448.449" y1="61.972" x2="483.551" y2="61.972" stroke="#111111" stroke-width="0.25"/><text x="466" y="66.472" font-size="4.2" text-anchor="middle" fill="#111111">11'-0&quot; x 9'-8&quot;</text><text x="466" y="71.148" font-size="3.5" text-anchor="middle" fill="#111111" opacity="0.85">9' CLG</text><text x="488" y="198.185" font-size="4.5" text-anchor="middle" fill="#111111" font-weight="600" letter-spacing="0.3">BATH 2</text><line x1="478.743" y1="199.175" x2="497.257" y2="199.175" stroke="#111111" stroke-width="0.25"/><text x="488" y="203.225" font-size="3.78" text-anchor="middle" fill="#111111">7'-4&quot; x 7'-10&quot;</text><text x="488" y="207.433" font-size="3.15" text-anchor="middle" fill="#111111" opacity="0.85">9' CLG</text><text x="466" y="310.872" font-size="5" text-anchor="middle" fill="#111111" font-weight="600" letter-spacing="0.3">BEDROOM-2</text><line x1="448.449" y1="311.972" x2="483.551" y2="311.972" stroke="#111111" stroke-width="0.25"/><text x="466" y="316.472" font-size="4.2" text-anchor="middle" fill="#111111">11'-0&quot; x 10'-0&quot;</text><text x="466" y="321.148" font-size="3.5" text-anchor="middle" fill="#111111" opacity="0.85">9' CLG</text><text x="120" y="443.872" font-size="5" text-anchor="middle" fill="#111111" font-weight="600" letter-spacing="0.3">2 CAR GARAGE</text><line x1="98.095" y1="444.972" x2="141.905" y2="444.972" stroke="#111111" stroke-width="0.25"/><text x="120" y="449.472" font-size="4.2" text-anchor="middle" fill="#111111">19'-0&quot; x 21'-10&quot;</text><text x="120" y="454.148" font-size="3.5" text-anchor="middle" fill="#111111" opacity="0.85">9' CLG</text><text x="290" y="348.872" font-size="5" text-anchor="middle" fill="#111111" font-weight="600" letter-spacing="0.3">COV. PORCH</text><line x1="271.548" y1="349.972" x2="308.452" y2="349.972" stroke="#111111" stroke-width="0.25"/><text x="290" y="354.472" font-size="4.2" text-anchor="middle" fill="#111111">8'-4&quot; x 6'-0&quot;</text><text x="290" y="359.148" font-size="3.5" text-anchor="middle" fill="#111111" opacity="0.85">12' CLG</text></g>
<g id="fp-dims"><line x1="0" y1="-1.5" x2="0" y2="-119" stroke="#111111" stroke-width="0.22"/><line x1="172" y1="-1.5" x2="172" y2="-119" stroke="#111111" stroke-width="0.22"/><line x1="236" y1="-1.5" x2="236" y2="-119" stroke="#111111" stroke-width="0.22"/><line x1="300" y1="-73.5" x2="300" y2="-119" stroke="#111111" stroke-width="0.22"/><line x1="372" y1="-73.5" x2="372" y2="-119" stroke="#111111" stroke-width="0.22"/><line x1="398" y1="-1.5" x2="398" y2="-119" stroke="#111111" stroke-width="0.22"/><line x1="538" y1="-1.5" x2="538" y2="-119" stroke="#111111" stroke-width="0.22"/><line x1="0" y1="-96" x2="538" y2="-96" stroke="#111111" stroke-width="0.3"/><line x1="-2.2" y1="-93.8" x2="2.2" y2="-98.2" stroke="#111111" stroke-width="0.5"/><line x1="169.8" y1="-93.8" x2="174.2" y2="-98.2" stroke="#111111" stroke-width="0.5"/><line x1="233.8" y1="-93.8" x2="238.2" y2="-98.2" stroke="#111111" stroke-width="0.5"/><line x1="297.8" y1="-93.8" x2="302.2" y2="-98.2" stroke="#111111" stroke-width="0.5"/><line x1="369.8" y1="-93.8" x2="374.2" y2="-98.2" stroke="#111111" stroke-width="0.5"/><line x1="395.8" y1="-93.8" x2="400.2" y2="-98.2" stroke="#111111" stroke-width="0.5"/><line x1="535.8" y1="-93.8" x2="540.2" y2="-98.2" stroke="#111111" stroke-width="0.5"/><text x="86" y="-97.6" font-size="3.9" text-anchor="middle" fill="#111111">14'-4&quot;</text><text x="204" y="-97.6" font-size="3.9" text-anchor="middle" fill="#111111">5'-4&quot;</text><text x="268" y="-97.6" font-size="3.9" text-anchor="middle" fill="#111111">5'-4&quot;</text><text x="336" y="-97.6" font-size="3.9" text-anchor="middle" fill="#111111">6'-0&quot;</text><text x="385" y="-97.6" font-size="3.9" text-anchor="middle" fill="#111111">2'-2&quot;</text><text x="468" y="-97.6" font-size="3.9" text-anchor="middle" fill="#111111">11'-8&quot;</text><line x1="0" y1="-116" x2="538" y2="-116" stroke="#111111" stroke-width="0.3"/><line x1="-2.2" y1="-113.8" x2="2.2" y2="-118.2" stroke="#111111" stroke-width="0.5"/><line x1="535.8" y1="-113.8" x2="540.2" y2="-118.2" stroke="#111111" stroke-width="0.5"/><text x="269" y="-117.6" font-size="3.9" text-anchor="middle" fill="#111111">44'-10&quot;</text><line x1="0" y1="585.5" x2="0" y2="631" stroke="#111111" stroke-width="0.22"/><line x1="240" y1="585.5" x2="240" y2="631" stroke="#111111" stroke-width="0.22"/><line x1="340" y1="389.5" x2="340" y2="631" stroke="#111111" stroke-width="0.22"/><line x1="394" y1="381.5" x2="394" y2="631" stroke="#111111" stroke-width="0.22"/><line x1="538" y1="381.5" x2="538" y2="631" stroke="#111111" stroke-width="0.22"/><line x1="0" y1="608" x2="538" y2="608" stroke="#111111" stroke-width="0.3"/><line x1="-2.2" y1="610.2" x2="2.2" y2="605.8" stroke="#111111" stroke-width="0.5"/><line x1="237.8" y1="610.2" x2="242.2" y2="605.8" stroke="#111111" stroke-width="0.5"/><line x1="337.8" y1="610.2" x2="342.2" y2="605.8" stroke="#111111" stroke-width="0.5"/><line x1="391.8" y1="610.2" x2="396.2" y2="605.8" stroke="#111111" stroke-width="0.5"/><line x1="535.8" y1="610.2" x2="540.2" y2="605.8" stroke="#111111" stroke-width="0.5"/><text x="120" y="606.4" font-size="3.9" text-anchor="middle" fill="#111111">20'-0&quot;</text><text x="290" y="606.4" font-size="3.9" text-anchor="middle" fill="#111111">8'-4&quot;</text><text x="367" y="606.4" font-size="3.9" text-anchor="middle" fill="#111111">4'-6&quot;</text><text x="466" y="606.4" font-size="3.9" text-anchor="middle" fill="#111111">12'-0&quot;</text><line x1="0" y1="628" x2="538" y2="628" stroke="#111111" stroke-width="0.3"/><line x1="-2.2" y1="630.2" x2="2.2" y2="625.8" stroke="#111111" stroke-width="0.5"/><line x1="535.8" y1="630.2" x2="540.2" y2="625.8" stroke="#111111" stroke-width="0.5"/><text x="269" y="626.4" font-size="3.9" text-anchor="middle" fill="#111111">44'-10&quot;</text><line x1="-1.5" y1="0" x2="-47" y2="0" stroke="#111111" stroke-width="0.22"/><line x1="-1.5" y1="146" x2="-47" y2="146" stroke="#111111" stroke-width="0.22"/><line x1="-1.5" y1="208" x2="-47" y2="208" stroke="#111111" stroke-width="0.22"/><line x1="-1.5" y1="252" x2="-47" y2="252" stroke="#111111" stroke-width="0.22"/><line x1="-1.5" y1="316" x2="-47" y2="316" stroke="#111111" stroke-width="0.22"/><line x1="-1.5" y1="584" x2="-47" y2="584" stroke="#111111" stroke-width="0.22"/><line x1="-24" y1="0" x2="-24" y2="584" stroke="#111111" stroke-width="0.3"/><line x1="-26.2" y1="2.2" x2="-21.8" y2="-2.2" stroke="#111111" stroke-width="0.5"/><line x1="-26.2" y1="148.2" x2="-21.8" y2="143.8" stroke="#111111" stroke-width="0.5"/><line x1="-26.2" y1="210.2" x2="-21.8" y2="205.8" stroke="#111111" stroke-width="0.5"/><line x1="-26.2" y1="254.2" x2="-21.8" y2="249.8" stroke="#111111" stroke-width="0.5"/><line x1="-26.2" y1="318.2" x2="-21.8" y2="313.8" stroke="#111111" stroke-width="0.5"/><line x1="-26.2" y1="586.2" x2="-21.8" y2="581.8" stroke="#111111" stroke-width="0.5"/><text x="-25.6" y="73" font-size="3.9" text-anchor="middle" fill="#111111" transform="rotate(-90 -25.6 73)">12'-2&quot;</text><text x="-25.6" y="177" font-size="3.9" text-anchor="middle" fill="#111111" transform="rotate(-90 -25.6 177)">5'-2&quot;</text><text x="-25.6" y="230" font-size="3.9" text-anchor="middle" fill="#111111" transform="rotate(-90 -25.6 230)">3'-8&quot;</text><text x="-25.6" y="284" font-size="3.9" text-anchor="middle" fill="#111111" transform="rotate(-90 -25.6 284)">5'-4&quot;</text><text x="-25.6" y="450" font-size="3.9" text-anchor="middle" fill="#111111" transform="rotate(-90 -25.6 450)">22'-4&quot;</text><line x1="-44" y1="0" x2="-44" y2="584" stroke="#111111" stroke-width="0.3"/><line x1="-46.2" y1="2.2" x2="-41.8" y2="-2.2" stroke="#111111" stroke-width="0.5"/><line x1="-46.2" y1="586.2" x2="-41.8" y2="581.8" stroke="#111111" stroke-width="0.5"/><text x="-45.6" y="292" font-size="3.9" text-anchor="middle" fill="#111111" transform="rotate(-90 -45.6 292)">48'-8&quot;</text><line x1="539.5" y1="0" x2="585" y2="0" stroke="#111111" stroke-width="0.22"/><line x1="539.5" y1="124" x2="585" y2="124" stroke="#111111" stroke-width="0.22"/><line x1="539.5" y1="152" x2="585" y2="152" stroke="#111111" stroke-width="0.22"/><line x1="539.5" y1="220" x2="585" y2="220" stroke="#111111" stroke-width="0.22"/><line x1="539.5" y1="251" x2="585" y2="251" stroke="#111111" stroke-width="0.22"/><line x1="241.5" y1="316" x2="585" y2="316" stroke="#111111" stroke-width="0.22"/><line x1="539.5" y1="380" x2="585" y2="380" stroke="#111111" stroke-width="0.22"/><line x1="241.5" y1="584" x2="585" y2="584" stroke="#111111" stroke-width="0.22"/><line x1="562" y1="0" x2="562" y2="584" stroke="#111111" stroke-width="0.3"/><line x1="559.8" y1="2.2" x2="564.2" y2="-2.2" stroke="#111111" stroke-width="0.5"/><line x1="559.8" y1="126.2" x2="564.2" y2="121.8" stroke="#111111" stroke-width="0.5"/><line x1="559.8" y1="154.2" x2="564.2" y2="149.8" stroke="#111111" stroke-width="0.5"/><line x1="559.8" y1="222.2" x2="564.2" y2="217.8" stroke="#111111" stroke-width="0.5"/><line x1="559.8" y1="253.2" x2="564.2" y2="248.8" stroke="#111111" stroke-width="0.5"/><line x1="559.8" y1="318.2" x2="564.2" y2="313.8" stroke="#111111" stroke-width="0.5"/><line x1="559.8" y1="382.2" x2="564.2" y2="377.8" stroke="#111111" stroke-width="0.5"/><line x1="559.8" y1="586.2" x2="564.2" y2="581.8" stroke="#111111" stroke-width="0.5"/><text x="560.4" y="62" font-size="3.9" text-anchor="middle" fill="#111111" transform="rotate(-90 560.4 62)">10'-4&quot;</text><text x="560.4" y="138" font-size="3.9" text-anchor="middle" fill="#111111" transform="rotate(-90 560.4 138)">2'-4&quot;</text><text x="560.4" y="186" font-size="3.9" text-anchor="middle" fill="#111111" transform="rotate(-90 560.4 186)">5'-8&quot;</text><text x="560.4" y="235.5" font-size="3.9" text-anchor="middle" fill="#111111" transform="rotate(-90 560.4 235.5)">2'-7&quot;</text><text x="560.4" y="283.5" font-size="3.9" text-anchor="middle" fill="#111111" transform="rotate(-90 560.4 283.5)">5'-5&quot;</text><text x="560.4" y="348" font-size="3.9" text-anchor="middle" fill="#111111" transform="rotate(-90 560.4 348)">5'-4&quot;</text><text x="560.4" y="482" font-size="3.9" text-anchor="middle" fill="#111111" transform="rotate(-90 560.4 482)">17'-0&quot;</text><line x1="582" y1="0" x2="582" y2="584" stroke="#111111" stroke-width="0.3"/><line x1="579.8" y1="2.2" x2="584.2" y2="-2.2" stroke="#111111" stroke-width="0.5"/><line x1="579.8" y1="586.2" x2="584.2" y2="581.8" stroke="#111111" stroke-width="0.5"/><text x="580.4" y="292" font-size="3.9" text-anchor="middle" fill="#111111" transform="rotate(-90 580.4 292)">48'-8&quot;</text></g>
<g id="fp-annot"><text x="120" y="592.2" font-size="3.4" text-anchor="middle" fill="#111111">16'X8' O.H. GARAGE DOOR</text><text x="308.8" y="295" font-size="3.1" text-anchor="middle" fill="#111111" transform="rotate(-90 308.8 295)">3068</text><text x="184.8" y="295" font-size="3.1" text-anchor="middle" fill="#111111" transform="rotate(-90 184.8 295)">3068</text><text x="336" y="38.1" font-size="3.1" text-anchor="middle" fill="#111111">PR 2668</text><text x="135.432" y="128" font-size="3.1" text-anchor="middle" fill="#111111" transform="rotate(-90 135.432 128)">3068</text><text x="61.432" y="128" font-size="3.1" text-anchor="middle" fill="#111111" transform="rotate(-90 61.432 128)">3068</text><text x="192.8" y="230" font-size="3.1" text-anchor="middle" fill="#111111" transform="rotate(-90 192.8 230)">3068</text><text x="251" y="61.8" font-size="3.1" text-anchor="middle" fill="#111111">2668</text><text x="59.432" y="268" font-size="3.1" text-anchor="middle" fill="#111111" transform="rotate(-90 59.432 268)">2868</text><text x="407.432" y="140" font-size="3.1" text-anchor="middle" fill="#111111" transform="rotate(-90 407.432 140)">2868</text><text x="458" y="187.432" font-size="3.1" text-anchor="middle" fill="#111111">2868</text><text x="407.432" y="268" font-size="3.1" text-anchor="middle" fill="#111111" transform="rotate(-90 407.432 268)">2868</text><text x="518.8" y="267" font-size="3.1" text-anchor="middle" fill="#111111" transform="rotate(-90 518.8 267)">2868</text><text x="488" y="97.1" font-size="3.1" text-anchor="middle" fill="#111111">PR 2068</text><text x="208.6" y="186" font-size="3.1" text-anchor="middle" fill="#111111" transform="rotate(-90 208.6 186)">3010 C.O.</text><text x="99.432" y="198" font-size="3.1" text-anchor="middle" fill="#111111" transform="rotate(-90 99.432 198)">2068</text><text x="405.6" y="176" font-size="3.1" text-anchor="middle" fill="#111111" transform="rotate(-90 405.6 176)">3010 C.O.</text><text x="68" y="165.432" font-size="3.1" text-anchor="middle" fill="#111111">2868</text><circle cx="88" cy="-11" r="4.6" fill="#ffffff" stroke="#111111" stroke-width="0.35"/><text x="88" y="-9.45" font-size="4.4" text-anchor="middle" fill="#111111" font-weight="600">A</text><circle cx="466" cy="-11" r="4.6" fill="#ffffff" stroke="#111111" stroke-width="0.35"/><text x="466" y="-9.45" font-size="4.4" text-anchor="middle" fill="#111111" font-weight="600">A</text><circle cx="466" cy="391" r="4.6" fill="#ffffff" stroke="#111111" stroke-width="0.35"/><text x="466" y="392.55" font-size="4.4" text-anchor="middle" fill="#111111" font-weight="600">A</text><circle cx="274" cy="-11" r="4.6" fill="#ffffff" stroke="#111111" stroke-width="0.35"/><text x="274" y="-9.45" font-size="4.4" text-anchor="middle" fill="#111111" font-weight="600">B</text><circle cx="370" cy="327" r="4.6" fill="#ffffff" stroke="#111111" stroke-width="0.35"/><text x="370" y="328.55" font-size="4.4" text-anchor="middle" fill="#111111" font-weight="600">C</text><circle cx="-11" cy="177" r="4.6" fill="#ffffff" stroke="#111111" stroke-width="0.35"/><text x="-11" y="178.55" font-size="4.4" text-anchor="middle" fill="#111111" font-weight="600">D</text><circle cx="549" cy="186" r="4.6" fill="#ffffff" stroke="#111111" stroke-width="0.35"/><text x="549" y="187.55" font-size="4.4" text-anchor="middle" fill="#111111" font-weight="600">D</text><circle cx="266" cy="327" r="4.6" fill="#ffffff" stroke="#111111" stroke-width="0.35"/><text x="266" y="328.55" font-size="4.4" text-anchor="middle" fill="#111111" font-weight="600">E</text><circle cx="318" cy="327" r="4.6" fill="#ffffff" stroke="#111111" stroke-width="0.35"/><text x="318" y="328.55" font-size="4.4" text-anchor="middle" fill="#111111" font-weight="600">E</text><text x="269" y="651.9" font-size="5" text-anchor="middle" fill="#111111" font-weight="600" letter-spacing="1.5">FRONT</text><line x1="247" y1="654.9" x2="291" y2="654.9" stroke="#111111" stroke-width="0.35"/><text x="-131.9" y="708.9" font-size="8" text-anchor="start" fill="#111111" font-weight="700" letter-spacing="0.8">FLOOR PLAN</text><line x1="-131.9" y1="711.4" x2="-69.166" y2="711.4" stroke="#111111" stroke-width="0.5"/><text x="-131.9" y="717.9" font-size="4" text-anchor="start" fill="#111111" letter-spacing="0.3">SCALE: 1/4&quot; = 1'-0&quot;</text><text x="635.9" y="702.3" font-size="3.6" text-anchor="end" fill="#111111" letter-spacing="0.3">LIVING AREA</text><text x="669.9" y="702.3" font-size="3.6" text-anchor="end" fill="#111111" font-weight="400">1,245 SF</text><text x="635.9" y="707.5" font-size="3.6" text-anchor="end" fill="#111111" letter-spacing="0.3">GARAGE</text><text x="669.9" y="707.5" font-size="3.6" text-anchor="end" fill="#111111" font-weight="400">447 SF</text><text x="635.9" y="712.7" font-size="3.6" text-anchor="end" fill="#111111" letter-spacing="0.3">PORCH</text><text x="669.9" y="712.7" font-size="3.6" text-anchor="end" fill="#111111" font-weight="400">50 SF</text><text x="635.9" y="717.9" font-size="3.6" text-anchor="end" fill="#111111" letter-spacing="0.3">TOTAL UNDER ROOF</text><text x="669.9" y="717.9" font-size="3.6" text-anchor="end" fill="#111111" font-weight="700">1,741 SF</text><line x1="594.237" y1="714.5" x2="669.9" y2="714.5" stroke="#111111" stroke-width="0.3"/></g>
</svg>